# AST/ASF file generated using VICON BodyLanguage
# -----------------------------------------------
:version 1.10
:name VICON
:units
  mass 1.0
  length 0.45
  angle deg
:documentation
   .ast/.asf automatically generated from VICON data using
   VICON BodyBuilder and BodyLanguage model FoxedUp or BRILLIANT.MOD
:root
   order TX TY TZ RX RY RZ
   axis XYZ
   position 0 0 0  
   orientation 0 0 0 
:bonedata
  begin
     id 1 
     name lhipjoint
     direction 0.707368 -0.647095 0.284426 
     length 2.60678 
     axis 0 0 0  XYZ
  end
  begin
     id 2 
     name lfemur
     direction 0.34202 -0.939693 0  
     length 6.63812  
     axis 0 0 20  XYZ
    dof rx ry rz
    limits (-160.0 20.0)
           (-70.0 70.0)
           (-60.0 70.0)
  end
  begin
     id 3 
     name ltibia
     direction 0.34202 -0.939693 0   
     length 7.51178   
     axis 0 0 20   XYZ
    dof rx
    limits (-10.0 170.0)
  end
  begin
     id 4 
     name lfoot
     direction 0.121251 -0.333133 0.935051   
     length 1.83716   
     axis -90 7.62852e-016 20   XYZ
    dof rx rz
    limits (-45.0 90.0)
           (-70.0 20.0)
  end
  begin
     id 5 
     name ltoes
     direction 1.53611e-011 -4.21962e-011 1   
     length 0.916133   
     axis -90 7.62852e-016 20   XYZ
    dof rx
    limits (-90.0 20.0)
  end
  begin
     id 6 
     name rhipjoint
     direction -0.692419 -0.660507 0.290321   
     length 2.55385  
     axis 0 0 0  XYZ 
  end
  begin
     id 7 
     name rfemur
     direction -0.34202 -0.939693 0   
     length 7.29079   
     axis 0 0 -20   XYZ
    dof rx ry rz
    limits (-160.0 20.0)
           (-70.0 70.0)
           (-70.0 60.0)
  end
  begin
     id 8 
     name rtibia
     direction -0.34202 -0.939693 0   
     length 7.47143   
     axis 0 0 -20   XYZ
    dof rx
    limits (-10.0 170.0)
 end
 begin
     id 9 
     name rfoot
     direction -0.119907 -0.329441 0.936532   
     length 1.79439  
     axis -90 -7.62852e-016 -20   XYZ
    dof rx rz
    limits (-45.0 90.0)
           (-20.0 70.0)
  end
  begin
     id 10 
     name rtoes
     direction -1.53571e-011 -4.21961e-011 1   
     length 0.896039   
     axis -90 -7.62852e-016 -20   XYZ
    dof rx
    limits (-90.0 20.0)
  end
  begin
     id 11 
     name lowerback
     direction 0.0367721 0.992912 -0.113016   
     length 1.73542   
     axis 0 0 0   XYZ
    dof rx ry rz
    limits (-20.0 45.0)
           (-30.0 30.0)
           (-30.0 30.0)
  end
  begin
     id 12 
     name upperback
     direction -0.000314626 0.990678 0.136227   
     length 1.7514   
     axis 0 0 0   XYZ
    dof rx ry rz
    limits (-20.0 45.0)
           (-30.0 30.0)
           (-30.0 30.0)
  end
  begin
     id 13 
     name thorax
     direction -0.0226159 0.981151 0.191917   
     length 1.71471   
     axis 0 0 0   XYZ
    dof rx ry rz
    limits (-20.0 45.0)
           (-30.0 30.0)
           (-30.0 30.0)
  end
  begin
     id 14 
     name lowerneck
     direction 0.0219333 0.998071 0.0580739   
     length 1.65882   
     axis 0 0 0   XYZ
    dof rx ry rz
    limits (-20.0 45.0)
           (-30.0 30.0)
           (-30.0 30.0)
  end
  begin
     id 15 
     name upperneck
     direction 0.0384529 0.980058 -0.194957   
     length 1.6612   
     axis 0 0 0   XYZ
    dof rx ry rz
    limits (-20.0 45.0)
           (-30.0 30.0)
           (-30.0 30.0)
  end
  begin
     id 16
     name head
     direction 0.00592123 0.997421 -0.0715234  
     length 1.68077  
     axis 0 0 0   XYZ
    dof rx ry rz
    limits (-20.0 45.0)
           (-30.0 30.0)
           (-30.0 30.0)
  end
  begin
     id 17 
     name lclavicle
     direction 0.904803 0.417826 0.0821728  
     length 3.42227  
     axis 0 0 0   XYZ
    dof ry rz
    limits (-20.0 10.0)
           (0.0 20.0)
  end
  begin
     id 18 
     name lhumerus
     direction 1 -4.48965e-011 -2.68786e-027   
     length 5.11878   
     axis -180 -30 -90   XYZ
    dof rx ry rz
    limits (-60.0 90.0)
           (-90.0 90.0)
           (-90.0 90.0)
  end
  begin
     id 19
     name lradius
     direction 1 -4.48965e-011 2.61168e-028   
     length 3.59971   
     axis -180 -30 -90   XYZ
    dof rx
    limits (-10.0 170.0)
  end
  begin
     id 20
     name lwrist
     direction 1 -4.48965e-011 1.58672e-027   
     length 1.79985   
     axis -1.65735e-015 90 90   XYZ
    dof ry
    limits (-180.0 0.0)
 end
  begin
     id 21 
     name lhand
     direction 1 -4.48942e-011 3.17344e-027   
     length 0.62877   
     axis -2.02492e-015 90 90   XYZ
    dof rx rz
    limits (-90.0 90.0)
           (-45.0 45.0)
  end
  begin
     id 22 
     name lfingers
     direction 1 -4.49011e-011 6.34687e-027   
     length 0.506931   
     axis -4.04985e-015 90 90   XYZ
    dof rx
    limits (0.0 90.0)
  end
  begin
     id 23
     name lthumb
     direction 0.707107 -6.34982e-011 0.707107   
     length 0.727854   
     axis -90 45 2.85299e-015   XYZ
    dof rx rz
    limits (-45.0 45.0)
           (-45.0 45.0)
  end
  begin
     id 24 
     name rclavicle
     direction -0.945647 0.32488 0.0143075   
     length 3.52737  
     axis 0 0 0   XYZ 
    dof ry rz
    limits (-10.0 20.0)
           (-20.0 0.0)
  end
  begin
     id 25 
     name rhumerus
     direction -1 -4.48962e-011 1.92182e-027  
     length 5.4902   
     axis -180 30 90   XYZ
    dof rx ry rz
    limits (-90.0 60.0)
           (-90.0 90.0)
           (-90.0 90.0)
  end
  begin
     id 26 
     name rradius
     direction -1 -4.48967e-011 -5.97193e-028   
     length 3.20659   
     axis -180 30 90   XYZ
    dof rx
    limits (-10.0 170.0)
  end
  begin
     id 27 
     name rwrist
     direction -1 -4.48964e-011 1.58672e-027   
     length 1.6033   
     axis -1.65735e-015 -90 -90   XYZ
    dof ry
    limits (-180.0 0.0)
  end
  begin
     id 28
     name rhand
     direction -1 -4.49006e-011 3.17344e-027   
     length 0.691885   
     axis -2.02492e-015 -90 -90   XYZ
    dof rx rz
    limits (-90.0 90.0)
           (-45.0 45.0)
  end
  begin
     id 29
     name rfingers
     direction -1 -4.48908e-011 6.34687e-027   
     length 0.557815   
     axis -4.04985e-015 -90 -90   XYZ
    dof rx
    limits (0.0 90.0)
  end
  begin
     id 30
     name rthumb
     direction -0.707107 -6.34999e-011 0.707107   
     length 0.800915   
     axis -90 -45 -2.85299e-015   XYZ
    dof rx rz
    limits (-45.0 45.0)
           (-45.0 45.0)
  end
:hierarchy
  begin
    root lhipjoint rhipjoint lowerback
    lhipjoint lfemur
    lfemur ltibia
    ltibia lfoot
    lfoot ltoes
    rhipjoint rfemur
    rfemur rtibia
    rtibia rfoot
    rfoot rtoes
    lowerback upperback
    upperback thorax
    thorax lowerneck lclavicle rclavicle
    lowerneck upperneck
    upperneck head
    lclavicle lhumerus
    lhumerus lradius
    lradius lwrist
    lwrist lhand lthumb
    lhand lfingers
    rclavicle rhumerus
    rhumerus rradius
    rradius rwrist
    rwrist rhand rthumb
    rhand rfingers
  end

#!OML:ASF I:\Actors\actors\Patient Classification 1\Patient 1\Session 1\Subject1.ASF
:FULLY-SPECIFIED
:DEGREES
75
root -0.496819 17.5736 7.38758 5.79845 -3.23688 -5.123
lowerback 3.21563 6.03196 5.30284
upperback -8.76147 8.66417 0.266162
thorax -10.4283 3.79919 -3.63861
lowerneck -7.87521 -8.91411 -6.55476
upperneck 13.0585 -12.0661 5.60861
head 5.98468 -5.82305 1.84733
rclavicle 1.01927e-013 1.61016e-014
rhumerus -2.17864 8.41482 -92.5143
rradius 62.6172
rwrist -7.19711
rhand -7.85971 -48.3686
rfingers 7.12502
rthumb 18.0438 -77.5517
lclavicle 1.01927e-013 1.61016e-014
lhumerus -40.8121 35.4787 62.8512
lradius 22.9111
lwrist -24.7597
lhand -16.2393 -13.535
lfingers 7.12502
lthumb 9.96925 16.2089
rfemur -1.34396 22.222 22.8013
rtibia 2.0056
rfoot -10.1381 -19.6853
rtoes -0.904526
lfemur 6.31568 -37.5782 -18.1677
ltibia -2.53459
lfoot -13.5237 45.3076
ltoes 4.33188
76
root -0.507926 17.5789 7.375 5.74609 -3.1721 -5.1013
lowerback 3.62814 6.33616 5.6088
upperback -8.63203 9.11973 0.194569
thorax -10.4324 3.99211 -3.9624
lowerneck -8.07132 -9.12743 -6.87055
upperneck 12.783 -12.3241 5.85992
head 5.98373 -5.9432 1.94279
rclavicle 5.51627e-015 -1.5704e-014
rhumerus 1.83777 8.41407 -91.6763
rradius 60.8789
rwrist -7.56048
rhand -7.64578 -47.8349
rfingers 7.12502
rthumb 18.2496 -76.9988
lclavicle 5.51627e-015 -1.5704e-014
lhumerus -40.8569 37.2407 61.3337
lradius 22.3415
lwrist -26.1476
lhand -16.0965 -14.3516
lfingers 7.12502
lthumb 10.1071 15.3857
rfemur -1.2484 22.3475 22.8237
rtibia 1.85441
rfoot -10.1755 -19.7643
rtoes 0.207507
lfemur 6.24964 -37.4736 -18.0794
ltibia -2.53205
lfoot -13.4016 45.1968
ltoes 3.95916
77
root -0.516659 17.5772 7.35772 5.89732 -3.04062 -5.13441
lowerback 3.917 6.63847 6.03262
upperback -8.54063 9.57286 0.065373
thorax -10.3716 4.1755 -4.39536
lowerneck -8.32125 -9.3683 -7.06572
upperneck 12.3542 -12.618 6.08959
head 5.93818 -6.07679 2.00972
rclavicle -5.84427e-014 -1.88845e-014
rhumerus 5.78644 8.19962 -90.7958
rradius 58.9526
rwrist -8.041
rhand -6.88997 -47.8996
rfingers 7.12502
rthumb 18.9766 -76.9939
lclavicle -5.84427e-014 -1.88845e-014
lhumerus -40.7353 38.4719 60.2406
lradius 22.0319
lwrist -26.8832
lhand -16.0433 -14.2192
lfingers 7.12502
lthumb 10.1584 15.5156
rfemur -1.53578 22.2781 22.7746
rtibia 1.89918
rfoot -10.1677 -19.7082
rtoes 0.850355
lfemur 5.73698 -37.2622 -17.6705
ltibia -2.39977
lfoot -13.0786 44.8766
ltoes 3.42785
78
root -0.516625 17.5733 7.33759 6.09511 -2.86466 -5.19514
lowerback 4.21839 6.90137 6.64681
upperback -8.44515 9.9927 -0.072417
thorax -10.278 4.32938 -4.93464
lowerneck -8.67282 -9.58375 -7.21834
upperneck 11.9763 -12.8627 6.21981
head 5.91401 -6.1882 2.03817
rclavicle 4.19933e-015 -9.93923e-016
rhumerus 9.6694 7.94564 -89.8606
rradius 56.8592
rwrist -8.8136
rhand -5.89586 -47.9576
rfingers 7.12502
rthumb 19.9325 -76.9554
lclavicle 4.19933e-015 -9.93923e-016
lhumerus -40.6734 39.4304 59.3278
lradius 21.8751
lwrist -27.1562
lhand -16.0722 -14.0974
lfingers 7.12502
lthumb 10.1305 15.6387
rfemur -2.00589 21.8071 22.649
rtibia 2.07987
rfoot -10.0569 -19.3598
rtoes 0.711206
lfemur 5.03617 -37.0873 -17.2206
ltibia -2.08632
lfoot -12.7058 44.5352
ltoes 2.91906
79
root -0.525077 17.5808 7.3232 5.87693 -2.60472 -5.23735
lowerback 4.80673 7.04773 7.1634
upperback -8.1998 10.2716 -0.135382
thorax -10.2239 4.42503 -5.36155
lowerneck -8.9885 -9.75228 -7.38683
upperneck 11.5974 -13.0532 6.42826
head 5.88663 -6.26936 2.09965
rclavicle 5.97099e-014 1.82882e-014
rhumerus 13.5249 7.76788 -88.9076
rradius 54.5567
rwrist -9.93968
rhand -4.70245 -47.8765
rfingers 7.12502
rthumb 21.0793 -76.7507
lclavicle 5.97099e-014 1.82882e-014
lhumerus -40.7597 40.5156 58.2115
lradius 21.6003
lwrist -27.5183
lhand -16.2384 -14.2236
lfingers 7.12502
lthumb 9.97012 15.5203
rfemur -1.7798 21.5738 22.806
rtibia 2.04946
rfoot -9.96357 -19.3722
rtoes 0.587519
lfemur 4.91897 -36.7463 -17.0896
ltibia -1.83178
lfoot -12.3326 44.031
ltoes 2.3126
80
root -0.549795 17.5939 7.31528 5.51974 -2.15529 -5.24889
lowerback 5.41469 7.13506 7.47582
upperback -7.9389 10.4531 -0.220841
thorax -10.2003 4.4877 -5.70023
lowerneck -9.16822 -9.91317 -7.45487
upperneck 11.1235 -13.2646 6.74491
head 5.80958 -6.35379 2.18552
rclavicle 1.26725e-013 1.94809e-014
rhumerus 17.2689 7.4329 -87.99
rradius 52.0176
rwrist -11.2199
rhand -3.28387 -47.7721
rfingers 7.12502
rthumb 22.4415 -76.4883
lclavicle 1.26725e-013 1.94809e-014
lhumerus -40.8394 41.4772 57.036
lradius 21.2568
lwrist -27.8575
lhand -16.5182 -13.7635
lfingers 7.12502
lthumb 9.70022 15.9931
rfemur -1.13196 21.8737 23.1789
rtibia 1.79727
rfoot -9.91948 -20.0968
rtoes 0.781157
lfemur 4.97644 -36.2035 -16.9294
ltibia -1.74525
lfoot -11.7973 43.2147
ltoes 1.43575
81
root -0.57224 17.6026 7.3058 5.35424 -1.65651 -5.28802
lowerback 5.89952 7.20367 7.81866
upperback -7.75345 10.6087 -0.312446
thorax -10.184 4.53458 -6.04837
lowerneck -9.35058 -10.0693 -7.45069
upperneck 10.5945 -13.4579 6.95002
head 5.70237 -6.43522 2.22951
rclavicle -9.88954e-015 -2.14687e-014
rhumerus 20.7955 7.3946 -86.8669
rradius 49.4373
rwrist -12.3001
rhand -1.90864 -47.9547
rfingers 7.12502
rthumb 23.761 -76.5056
lclavicle -9.88954e-015 -2.14687e-014
lhumerus -41.0096 42.4118 55.8511
lradius 20.8992
lwrist -27.9996
lhand -16.8322 -12.6636
lfingers 7.12502
lthumb 9.39722 17.1069
rfemur -0.776114 22.1732 23.4692
rtibia 1.62864
rfoot -9.92453 -20.8571
rtoes 1.1334
lfemur 4.78319 -35.8326 -16.5946
ltibia -1.7099
lfoot -11.0695 42.4988
ltoes 0.301892
82
root -0.589757 17.6064 7.29604 5.2829 -1.22631 -5.4121
lowerback 6.37101 7.25032 8.22422
upperback -7.62505 10.7528 -0.351145
thorax -10.2245 4.56828 -6.37758
lowerneck -9.45655 -10.1767 -7.48974
upperneck 9.93701 -13.5763 7.17889
head 5.54207 -6.48472 2.30153
rclavicle -2.11954e-014 -1.53064e-014
rhumerus 23.3889 8.09224 -85.2492
rradius 46.5621
rwrist -13.2195
rhand -1.30995 -47.5675
rfingers 7.12502
rthumb 24.3351 -76.0426
lclavicle -2.11954e-014 -1.53064e-014
lhumerus -41.7179 43.9477 53.9075
lradius 20.2725
lwrist -28.9748
lhand -16.5028 -12.9339
lfingers 7.12502
lthumb 9.71508 16.822
rfemur -0.62789 22.2845 23.7606
rtibia 1.57285
rfoot -10.0529 -21.3408
rtoes 1.73151
lfemur 4.49131 -35.4458 -16.1458
ltibia -1.63647
lfoot -10.2333 41.8126
ltoes -1.13169
83
root -0.607788 17.61 7.29039 5.25532 -0.772469 -5.50179
lowerback 6.81622 7.27254 8.56567
upperback -7.56769 10.8617 -0.403019
thorax -10.3419 4.58201 -6.68851
lowerneck -9.54985 -10.2376 -7.51365
upperneck 9.3436 -13.6388 7.41913
head 5.39616 -6.50588 2.37986
rclavicle 6.36856e-014 3.02153e-014
rhumerus 25.4714 7.51104 -84.968
rradius 43.6092
rwrist -11.7497
rhand -0.402623 -47.1735
rfingers 7.12502
rthumb 25.2047 -75.5291
lclavicle 6.36856e-014 3.02153e-014
lhumerus -43.0897 46.0214 51.0518
lradius 19.4096
lwrist -30.9783
lhand -15.5439 -14.5499
lfingers 7.12502
lthumb 10.6401 15.1607
rfemur -0.497376 22.3376 24.005
rtibia 1.50426
rfoot -10.2463 -21.7815
rtoes 2.42485
lfemur 4.14831 -35.0431 -15.7186
ltibia -1.50544
lfoot -9.63392 41.04
ltoes -2.39634
84
root -0.625464 17.617 7.28756 5.33408 -0.257403 -5.39315
lowerback 7.09262 7.2677 8.74771
upperback -7.52924 10.8922 -0.538626
thorax -10.4009 4.57156 -6.97218
lowerneck -9.68537 -10.2716 -7.41295
upperneck 8.83398 -13.6629 7.49786
head 5.26054 -6.51246 2.39138
rclavicle -4.50744e-014 1.64991e-014
rhumerus 26.9889 4.2984 -87.4541
rradius 40.6795
rwrist -6.42229
rhand 1.68488 -46.2535
rfingers 7.12502
rthumb 27.2032 -74.3123
lclavicle -4.50744e-014 1.64991e-014
lhumerus -44.9167 48.2033 47.7173
lradius 18.5902
lwrist -33.3035
lhand -15.6495 -14.6568
lfingers 7.12502
lthumb 10.5382 15.059
rfemur -0.493582 22.2912 23.9524
rtibia 1.43663
rfoot -10.3387 -22.2177
rtoes 2.80019
lfemur 3.66747 -34.8441 -15.4809
ltibia -1.33769
lfoot -9.28566 40.3732
ltoes -3.28423
85
root -0.646394 17.6263 7.28548 5.49718 0.266466 -5.27203
lowerback 7.23586 7.28314 8.90216
upperback -7.49935 10.9296 -0.712195
thorax -10.3853 4.57172 -7.26121
lowerneck -9.79388 -10.2918 -7.32517
upperneck 8.37891 -13.6771 7.61696
head 5.14088 -6.51259 2.41818
rclavicle 5.82191e-014 1.80894e-014
rhumerus 29.1089 4.37775 -86.4826
rradius 37.7533
rwrist -5.82335
rhand 2.85531 -45.8815
rfingers 7.12502
rthumb 28.3223 -73.7598
lclavicle 5.82191e-014 1.80894e-014
lhumerus -47.3978 50.6001 43.6502
lradius 17.8456
lwrist -36.2961
lhand -16.3618 -12.7408
lfingers 7.12502
lthumb 9.85107 17.0087
rfemur -0.633702 22.3283 23.8472
rtibia 1.4238
rfoot -10.4224 -22.7282
rtoes 3.11298
lfemur 3.0473 -34.6463 -15.1528
ltibia -1.18623
lfoot -8.92799 39.7427
ltoes -4.05604
86
root -0.665687 17.6315 7.27874 5.53847 0.853699 -5.70937
lowerback 7.59676 7.25236 9.65952
upperback -7.47257 11.023 -0.72328
thorax -10.4277 4.55174 -7.7365
lowerneck -9.97479 -10.3454 -7.54605
upperneck 8.06972 -13.7383 8.06455
head 5.12797 -6.52156 2.57654
rclavicle 2.62893e-014 4.37326e-015
rhumerus 30.5906 4.01758 -85.9312
rradius 35.7787
rwrist -5.22541
rhand 4.31063 -45.3843
rfingers 7.12502
rthumb 29.7122 -73.0233
lclavicle 2.62893e-014 4.37326e-015
lhumerus -50.9977 53.3392 38.4105
lradius 17.1365
lwrist -40.1751
lhand -15.911 -11.8043
lfingers 7.12502
lthumb 10.286 17.9241
rfemur -0.669826 22.4139 24.4722
rtibia 1.47132
rfoot -10.5923 -23.2905
rtoes 3.45693
lfemur 2.48884 -34.1585 -14.1369
ltibia -1.08228
lfoot -8.56361 38.8221
ltoes -4.70012
87
root -0.685786 17.6352 7.27363 5.57972 1.38374 -5.89898
lowerback 7.93142 7.20457 10.0063
upperback -7.43025 11.042 -0.72065
thorax -10.5204 4.52469 -7.97048
lowerneck -10.17 -10.3921 -7.69675
upperneck 7.68521 -13.7761 8.38722
head 5.07847 -6.52512 2.69061
rclavicle 5.9039e-014 6.55989e-015
rhumerus 31.7629 4.17849 -85.0299
rradius 34.3168
rwrist -5.7221
rhand 5.16571 -44.8525
rfingers 7.12502
rthumb 30.528 -72.3428
lclavicle 5.9039e-014 6.55989e-015
lhumerus -54.9009 55.5078 33.2354
lradius 16.5651
lwrist -43.2084
lhand -15.3263 -12.945
lfingers 7.12502
lthumb 10.85 16.7547
rfemur -0.677883 22.5896 24.8134
rtibia 1.47463
rfoot -10.8214 -23.9351
rtoes 3.90084
lfemur 1.98879 -33.7665 -13.4643
ltibia -0.9712
lfoot -8.21219 37.9966
ltoes -5.26895
88
root -0.704235 17.6348 7.27648 5.56152 1.76176 -5.81535
lowerback 8.21017 7.19055 9.9817
upperback -7.36013 11.0444 -0.762535
thorax -10.6018 4.51916 -8.04355
lowerneck -10.2726 -10.3471 -7.32868
upperneck 7.13356 -13.6985 8.22545
head 4.88105 -6.49171 2.60449
rclavicle -6.99474e-014 -2.32578e-014
rhumerus 32.4817 4.5831 -84.0447
rradius 33.4636
rwrist -6.52089
rhand 5.59474 -44.4548
rfingers 7.12502
rthumb 30.9371 -71.8682
lclavicle -6.99474e-014 -2.32578e-014
lhumerus -57.8344 56.4928 29.56
lradius 16.1809
lwrist -44.5165
lhand -15.0598 -14.4928
lfingers 7.12502
lthumb 11.1071 15.1932
rfemur -0.549045 22.7629 24.8453
rtibia 1.40132
rfoot -11.0573 -24.472
rtoes 4.57762
lfemur 1.823 -33.6698 -13.3502
ltibia -0.94974
lfoot -7.91259 37.5515
ltoes -5.91022
